# xmcd CD database file
#
# Track frame offsets:
#	150
#	9324
#	24727
#	37212
#	47354
#	65915
#	75726
#	85380
#	94192
#	108145
#	125014
#	140270
#	153514
#	166527
#	180497
#	192073
#
# Disc length: 2755 seconds
#
# Revision: 1
# Processed by: cddbd v1.5.2PL0 Copyright (c) Steve Scherf et al.
# Submitted via: CDex 1.51
#
DISCID=c70ac110
DTITLE=Various Artist - Rat Pack CD 2
DYEAR=1900
DGENRE=Blues
TTITLE0=Sammy Davis Jr. - Chicago
TTITLE1=Frank Sinatra - Laura
TTITLE2=Dean Martin - If I Should Love Again
TTITLE3=Sammy Davis Jr. - Here's That Rainy Day
TTITLE4=Frank Sinatra - Ol' Man River
TTITLE5=Dean Martin - If I Could Sing Like Bing
TTITLE6=With A Song In My Heart Sammy Davis Jr.
TTITLE7=Frank Sinatra - It's Only A Paper Moon
TTITLE8=Dean Martin - With My Eyes Wide Open I'm Dreaming
TTITLE9=Sammy Davis Jr. - Any Place I Hang My Hat Is Home
TTITLE10=Frank Sinatra - There's No Business Like Show Business
TTITLE11=Dean Martin - Til I Find You
TTITLE12=Sammy Davis Jr. - You're Nobody Till Somebody Loves You
TTITLE13=Frank Sinatra - I Hear A Rhapsody
TTITLE14=Dean Martin - I'll Always Love You
TTITLE15=Sammy Davis Jr. - Without A Song
EXTD=
EXTT0=
EXTT1=
EXTT2=
EXTT3=
EXTT4=
EXTT5=
EXTT6=
EXTT7=
EXTT8=
EXTT9=
EXTT10=
EXTT11=
EXTT12=
EXTT13=
EXTT14=
EXTT15=
PLAYORDER=
